<svg width="16" height="16" viewBox="0 0 16 16" fill="none" xmlns="http://www.w3.org/2000/svg">
<path fill-rule="evenodd" clip-rule="evenodd" d="M7.50499 1.75117C7.78132 1.75117 8.00533 1.97517 8.00533 2.2515V7.00467H12.7585C13.0348 7.00467 13.2588 7.22867 13.2588 7.505C13.2588 7.78133 13.0348 8.00533 12.7585 8.00533H8.00533V12.7585C8.00533 13.0348 7.78132 13.2588 7.50499 13.2588C7.22867 13.2588 7.00466 13.0348 7.00466 12.7585L7.00466 8.00533H2.25149C1.97517 8.00533 1.75116 7.78133 1.75116 7.505C1.75116 7.22867 1.97517 7.00467 2.25149 7.00467H7.00466V2.2515C7.00466 1.97517 7.22867 1.75117 7.50499 1.75117Z" fill="white"/>
</svg>
